<?xml version="1.0" standalone="no"?>
<!DOCTYPE svg PUBLIC "-//W3C//DTD SVG 20010904//EN"
 "http://www.w3.org/TR/2001/REC-SVG-20010904/DTD/svg10.dtd">
<svg version="1.0" xmlns="http://www.w3.org/2000/svg"
 width="280.000000pt" height="280.000000pt" viewBox="0 0 280.000000 280.000000"
 preserveAspectRatio="xMidYMid meet">
<metadata>
Created by potrace 1.14, written by Peter Selinger 2001-2017
</metadata>
<g transform="translate(0.000000,280.000000) scale(0.100000,-0.100000)"
fill="#000000" stroke="none">
<path d="M1313 2585 c0 -8 4 -12 9 -9 5 3 6 10 3 15 -9 13 -12 11 -12 -6z"/>
<path d="M1390 2580 c0 -5 5 -10 11 -10 5 0 7 5 4 10 -3 6 -8 10 -11 10 -2 0
-4 -4 -4 -10z"/>
<path d="M1461 2571 c8 -12 16 -16 20 -10 4 7 8 5 12 -4 4 -12 0 -15 -16 -11
-12 2 -23 8 -25 14 -5 15 -32 12 -38 -4 -3 -9 -12 -12 -21 -9 -11 4 -14 2 -9
-5 11 -18 0 -14 -15 5 -10 11 -10 14 -1 9 6 -4 12 -2 12 3 0 16 -20 13 -26 -4
-7 -17 -42 -14 -54 5 -4 7 -15 10 -23 7 -8 -3 -21 0 -28 6 -8 7 -11 8 -7 3 8
-10 -40 -52 -49 -43 -9 10 8 28 19 21 6 -4 8 -2 4 4 -9 15 -45 11 -39 -4 3 -8
-3 -11 -14 -9 -10 2 -23 4 -30 4 -7 1 -10 8 -7 16 4 8 1 15 -5 15 -6 0 -10 -3
-10 -7 3 -20 -2 -24 -16 -13 -8 7 -15 9 -15 5 0 -4 -8 -1 -17 6 -16 13 -17 12
-4 -3 9 -13 10 -18 2 -18 -7 0 -9 -5 -5 -12 4 -7 3 -8 -5 -4 -6 4 -9 11 -6 16
3 5 1 11 -4 14 -5 4 -8 -4 -7 -17 2 -15 -3 -23 -13 -23 -9 -1 -24 -4 -33 -9
-11 -4 -18 -3 -18 5 0 6 4 9 9 6 4 -3 17 1 27 9 16 11 17 16 6 27 -11 11 -12
10 -7 -4 8 -20 -10 -25 -18 -5 -4 9 -6 9 -6 -1 -1 -7 -6 -10 -13 -6 -6 4 -8 3
-5 -3 4 -6 0 -14 -9 -17 -9 -3 -14 -13 -11 -21 4 -9 1 -12 -9 -8 -10 4 -13 0
-8 -13 5 -18 5 -18 -6 0 -10 14 -9 20 1 28 11 8 11 9 -1 5 -8 -2 -15 -13 -14
-24 0 -15 -5 -19 -22 -17 -18 2 -22 -3 -20 -26 1 -16 -1 -27 -5 -24 -4 2 -14
-2 -22 -10 -8 -8 -18 -12 -21 -8 -4 3 -4 -1 -1 -10 4 -9 12 -16 18 -14 7 1 9
1 5 -1 -5 -3 -8 -11 -8 -19 0 -12 -3 -12 -14 -2 -8 7 -11 17 -8 22 3 5 0 6 -7
2 -6 -4 -9 -11 -6 -16 3 -4 2 -10 -2 -13 -5 -2 -3 -2 4 -1 6 2 14 -4 17 -13 5
-11 2 -14 -11 -9 -16 6 -16 6 0 -12 15 -17 15 -20 1 -38 -8 -10 -13 -14 -10
-8 3 7 -1 15 -10 18 -10 4 -13 2 -8 -6 4 -7 9 -26 10 -43 1 -16 3 -31 4 -32 2
-2 3 -6 4 -10 1 -5 5 -13 9 -20 4 -6 2 -15 -3 -18 -7 -5 -5 -12 7 -21 16 -13
15 -13 -9 -3 -15 7 -25 16 -22 20 11 18 12 49 3 49 -6 0 -9 -6 -6 -12 2 -7 0
-21 -4 -30 -6 -10 -5 -19 1 -23 6 -4 8 -10 5 -15 -3 -5 0 -12 6 -16 8 -4 9 -3
5 4 -5 8 -2 10 8 6 12 -4 12 -9 3 -18 -9 -11 -14 -10 -25 1 -7 7 -19 13 -25
12 -8 0 -8 -2 1 -6 6 -2 9 -10 6 -15 -4 -6 -2 -8 3 -5 6 4 13 1 16 -6 5 -14
-6 -39 -17 -38 -3 1 -7 1 -8 0 -22 -6 -38 -5 -38 3 0 6 7 7 16 4 10 -4 13 -2
8 6 -4 6 -3 8 2 5 6 -3 16 -1 24 5 12 8 12 9 -2 4 -10 -3 -20 -1 -23 4 -4 6
-12 10 -18 10 -8 0 -7 -3 2 -9 11 -7 9 -10 -8 -16 -12 -3 -19 -10 -16 -15 3
-4 -2 -13 -10 -20 -12 -10 -14 -8 -11 7 2 10 -1 27 -5 38 -8 18 -9 17 -5 -4 4
-21 2 -23 -25 -19 -22 4 -29 1 -25 -9 3 -8 2 -12 -3 -8 -5 3 -12 -1 -15 -7 -3
-7 -4 1 -1 17 4 20 3 25 -3 16 -8 -11 -10 -11 -15 0 -4 10 -6 10 -6 2 -1 -7
-7 -13 -15 -13 -7 0 -21 -10 -30 -22 -14 -20 -15 -20 -7 -2 5 11 6 26 2 33 -6
10 -10 9 -15 -4 -3 -9 -11 -13 -17 -9 -8 5 -8 1 -1 -13 9 -15 8 -20 -3 -20 -8
0 -12 4 -9 9 3 4 -2 8 -12 8 -14 0 -15 2 -3 18 13 16 13 16 -7 0 -16 -14 -23
-15 -34 -5 -12 10 -12 9 -2 -4 6 -9 8 -20 4 -25 -4 -4 0 -3 10 4 11 9 18 10
23 2 3 -5 4 -11 1 -11 -12 -3 -26 -7 -33 -9 -5 -1 -12 -2 -16 -1 -4 1 -10 -6
-14 -15 -5 -13 -7 -13 -14 -2 -14 22 -10 29 16 24 22 -4 24 -2 15 15 -12 22
-22 26 -14 5 3 -9 -1 -13 -13 -13 -11 1 -18 -5 -18 -15 0 -9 -4 -20 -9 -25 -5
-5 -6 -2 -1 6 5 9 3 12 -6 9 -8 -3 -13 -11 -11 -18 3 -11 0 -11 -12 0 -18 14
-22 35 -4 24 7 -5 8 -3 3 5 -5 8 -11 9 -17 3 -6 -6 -4 -19 8 -36 13 -21 14
-26 3 -24 -8 2 -13 -3 -11 -10 1 -8 -2 -11 -8 -7 -8 5 -8 11 0 20 7 8 7 16 2
19 -6 3 -15 -1 -21 -8 -8 -9 -8 -16 -2 -20 6 -4 7 -14 4 -23 -4 -10 -2 -14 4
-10 5 3 10 0 10 -7 0 -7 -6 -13 -13 -13 -7 0 -10 5 -7 10 3 6 1 7 -4 4 -13 -8
-36 17 -25 28 4 5 1 5 -6 1 -11 -6 -9 -13 7 -30 16 -17 18 -25 9 -34 -7 -7 -8
-12 -3 -12 6 0 3 -5 -5 -11 -13 -9 -13 -10 0 -6 8 2 14 10 12 16 -1 7 2 9 9 5
8 -4 9 -3 5 4 -4 7 -2 12 3 12 14 0 14 -17 1 -25 -6 -3 -8 -17 -6 -30 3 -13
-2 -29 -10 -36 -21 -17 -17 -29 9 -30 16 0 18 -2 6 -7 -9 -4 -15 -18 -14 -33
1 -18 -3 -26 -13 -25 -8 0 -16 -7 -17 -16 -2 -11 3 -18 12 -18 13 0 13 -2 2
-17 -12 -15 -12 -16 1 -8 8 4 12 5 8 0 -4 -4 -2 -15 5 -24 10 -14 10 -14 -5
-3 -20 16 -44 6 -29 -11 9 -12 11 -18 11 -38 0 -5 4 -8 9 -4 10 6 7 -27 -4
-45 -3 -6 -2 -10 4 -10 5 0 11 6 14 13 3 6 4 2 4 -9 -1 -13 -6 -20 -13 -17 -7
2 -15 -1 -20 -8 -4 -8 -3 -10 4 -5 7 4 12 2 12 -4 0 -6 4 -9 9 -6 17 11 3 -58
-15 -72 -18 -13 -18 -14 1 -8 16 5 21 1 22 -16 2 -18 0 -20 -7 -8 -8 13 -10
12 -10 -2 0 -10 4 -18 9 -18 17 0 20 -29 3 -42 -15 -11 -15 -11 -5 2 10 13 8
18 -8 28 -10 7 -19 8 -19 3 0 -5 6 -12 13 -14 9 -4 9 -8 -2 -16 -12 -8 -9 -11
13 -17 19 -4 24 -9 15 -14 -7 -5 -19 -6 -28 -3 -14 4 -14 3 -1 -5 8 -6 18 -8
22 -6 5 3 7 0 6 -8 -2 -7 3 -12 10 -10 8 1 11 -2 7 -8 -3 -6 -11 -8 -16 -5
-13 9 -11 -9 4 -24 7 -9 7 -11 1 -8 -7 4 -15 0 -18 -9 -8 -21 -8 -24 5 -24 5
0 8 4 5 8 -2 4 4 8 15 8 17 0 18 -2 5 -11 -16 -12 -17 -46 -1 -57 6 -5 5 -8
-4 -8 -11 0 -11 -3 0 -17 10 -11 10 -14 2 -9 -9 5 -13 0 -13 -13 0 -12 -4 -21
-9 -21 -6 0 -9 -9 -8 -19 0 -11 4 -19 7 -19 27 2 32 -4 11 -16 -15 -8 -20 -16
-12 -20 6 -4 11 -2 11 3 0 6 8 11 18 10 11 0 12 -2 4 -6 -8 -3 -10 -9 -3 -16
5 -7 10 -15 10 -19 1 -5 1 -9 2 -10 9 -29 6 -37 -10 -28 -13 6 -18 5 -18 -5 0
-8 4 -12 9 -9 14 9 9 -8 -9 -30 -13 -15 -10 -14 10 3 27 24 39 17 15 -8 -11
-11 -8 -12 12 -6 17 4 21 3 11 -3 -10 -7 -11 -14 -2 -31 7 -11 8 -21 4 -21 -4
0 -1 -5 7 -10 11 -7 11 -10 2 -10 -7 0 -10 -5 -6 -12 4 -6 3 -8 -4 -4 -6 3 -9
15 -7 26 3 14 -1 17 -13 13 -11 -5 -12 -8 -4 -11 10 -3 10 -7 0 -20 -11 -13
-11 -14 1 -7 11 6 13 4 9 -7 -7 -18 0 -31 27 -46 14 -8 16 -12 5 -12 -13 0
-13 -1 0 -11 13 -9 13 -10 0 -6 -8 2 -14 10 -12 16 1 6 -2 11 -8 11 -13 0 -13
-17 0 -25 8 -5 7 -12 -2 -23 -12 -16 -11 -16 6 -2 18 14 19 13 13 -3 -4 -10
-7 -21 -7 -23 0 -3 -6 -2 -12 1 -7 4 -3 -2 9 -13 17 -15 19 -22 10 -32 -9 -9
-7 -9 9 1 19 11 20 15 8 26 -17 17 -17 23 -3 43 8 12 9 10 4 -7 -4 -15 1 -26
17 -37 12 -9 17 -16 10 -16 -7 0 -10 -5 -7 -10 4 -6 10 -8 15 -5 12 7 6 -20
-7 -37 -10 -11 -8 -14 10 -15 17 -2 19 0 7 7 -9 6 -10 10 -3 10 21 0 24 -18 6
-30 -17 -11 -17 -11 0 -6 28 10 43 13 35 9 -5 -3 -4 -13 2 -22 5 -10 7 -20 5
-23 -3 -3 8 -4 24 -3 25 1 28 -2 25 -20 -4 -23 -7 -22 90 -27 19 -1 32 -7 29
-12 -4 -5 1 -7 10 -3 16 6 16 4 1 -21 -11 -19 -12 -22 -1 -9 18 21 31 22 23 1
-3 -8 -2 -12 4 -9 6 3 8 18 4 33 l-5 27 15 -25 c8 -14 12 -28 10 -32 -3 -5 -1
-8 5 -8 5 0 13 9 16 20 7 21 26 18 21 -3 -1 -7 -1 -9 1 -4 3 4 10 4 15 1 6 -4
8 -2 5 3 -9 14 16 23 45 17 13 -3 30 -7 38 -8 8 -2 21 2 29 8 12 9 13 8 7 -3
-7 -10 -3 -12 13 -6 16 5 21 2 21 -12 0 -14 -2 -15 -9 -4 -5 7 -11 9 -14 4 -3
-5 3 -15 15 -22 11 -7 18 -9 15 -4 -3 5 -2 15 4 23 5 8 9 10 9 4 0 -6 12 -11
26 -11 15 0 30 -7 35 -14 8 -13 10 -11 9 19 0 4 -9 6 -20 6 -11 -1 -17 3 -14
7 3 5 10 7 15 4 5 -4 9 0 9 7 0 10 2 10 9 -1 7 -11 9 -11 14 0 3 8 4 -1 3 -18
-2 -18 1 -30 5 -27 5 3 9 13 9 24 0 13 5 17 20 13 13 -3 20 0 20 8 0 12 2 12
9 1 4 -8 12 -14 16 -14 4 0 12 6 16 14 7 11 9 10 9 -1 0 -11 4 -10 16 5 8 10
13 13 9 7 -12 -24 -14 -53 -4 -59 5 -3 9 -2 8 3 -6 33 2 38 58 37 32 -1 64 4
72 10 12 9 13 8 7 -2 -6 -10 -2 -13 14 -10 14 2 25 -3 27 -12 3 -10 2 -11 -4
-3 -6 8 -14 8 -32 -1 -20 -11 -21 -14 -7 -19 10 -4 14 -3 11 2 -3 6 7 9 22 9
16 0 40 5 56 11 15 6 27 7 27 3 0 -4 5 0 11 8 9 13 10 12 5 -3 -5 -15 4 -22
27 -18 4 0 7 -3 7 -9 0 -5 8 -10 17 -10 15 0 14 2 -3 16 -19 15 -19 16 1 9 11
-4 25 -8 30 -9 6 -1 20 -8 33 -14 12 -7 22 -9 22 -4 0 4 9 8 21 9 18 2 19 0 7
-15 -12 -16 -11 -16 6 -2 10 8 24 15 30 16 6 0 17 2 24 2 7 1 10 7 6 14 -4 7
-3 8 4 4 7 -4 12 -1 12 6 0 10 2 10 9 -1 6 -9 10 -10 14 -2 3 7 4 7 2 -1 -1
-7 -9 -12 -16 -10 -10 3 -11 0 -3 -8 12 -12 47 -3 38 11 -3 5 2 6 10 3 10 -4
16 -1 16 7 0 7 3 9 6 6 4 -4 1 -13 -6 -22 -15 -18 1 -20 18 -3 16 16 16 -4 0
-21 -11 -11 -9 -11 9 0 21 13 22 15 6 39 l-16 25 21 -19 c12 -11 22 -15 22 -9
0 5 14 10 30 10 30 0 42 -12 15 -15 -8 -1 -21 -3 -29 -4 -8 -1 -14 -9 -13 -18
1 -18 20 -21 34 -5 4 4 2 5 -4 1 -7 -4 -13 -2 -13 5 0 6 8 9 19 6 12 -3 22 1
25 9 7 19 23 18 23 -1 0 -8 -4 -15 -9 -15 -4 0 -8 -5 -8 -11 0 -8 5 -8 15 1 8
7 12 16 9 21 -3 5 0 9 5 9 6 0 11 6 11 14 0 8 4 18 10 21 5 3 7 0 4 -9 -3 -8
-1 -23 5 -33 7 -12 10 -13 11 -4 0 11 3 11 15 1 13 -11 14 -10 8 6 -6 16 -4
17 8 7 13 -10 16 -10 16 1 0 14 -26 14 -48 0 -7 -4 -7 1 1 15 9 18 14 20 26
10 11 -9 14 -8 14 2 0 10 3 10 8 3 4 -6 16 -9 27 -7 11 2 26 5 33 5 7 1 10 8
7 16 -5 12 -3 13 10 2 9 -7 14 -15 12 -17 -5 -4 -46 -14 -64 -15 -7 -1 -13 -5
-13 -10 0 -10 11 -10 30 2 9 6 20 5 29 -3 12 -10 13 -9 6 2 -6 11 -4 13 9 8 9
-4 15 -3 11 2 -6 11 35 9 53 -3 8 -5 10 -2 5 11 -6 15 -4 16 8 6 12 -10 18
-10 29 0 10 10 12 8 6 -8 -6 -20 -6 -20 9 -1 8 11 15 23 15 28 0 4 5 8 11 8 6
0 8 -7 5 -17 -4 -10 -4 -14 0 -10 4 4 13 2 20 -4 8 -7 14 -6 20 2 4 8 3 9 -5
5 -6 -4 -14 0 -18 9 -4 11 4 25 23 40 26 21 31 22 51 10 19 -13 21 -12 18 3
-1 9 3 20 9 24 6 4 7 10 3 14 -4 4 -13 -1 -21 -11 -9 -13 -15 -15 -20 -6 -4 6
0 14 8 17 9 3 13 11 9 18 -4 6 4 3 18 -6 l26 -17 -3 32 c-5 39 4 69 18 61 7
-4 8 -2 4 5 -6 9 -11 9 -22 0 -8 -6 -17 -9 -21 -5 -3 3 -1 6 5 6 7 0 12 5 12
11 0 5 -4 7 -10 4 -5 -3 -10 -1 -10 5 0 6 11 8 28 5 17 -3 21 -2 10 2 -12 6
-15 12 -8 23 12 19 13 33 1 26 -5 -3 -12 1 -15 10 -3 8 -11 12 -17 8 -8 -4 -9
-3 -5 5 6 9 11 9 22 0 8 -6 14 -8 14 -4 0 4 6 2 14 -4 12 -10 14 -9 12 6 -2
11 -10 17 -20 15 -16 -3 -16 -2 -1 22 10 15 22 23 29 19 7 -4 6 -1 -1 9 -7 8
-10 18 -6 21 3 4 1 7 -6 7 -8 0 -11 -6 -7 -16 4 -10 2 -13 -6 -8 -6 4 -8 3 -5
-3 4 -6 -1 -17 -11 -24 -15 -13 -16 -12 -3 4 7 9 10 17 7 17 -4 0 -2 9 4 19 5
11 7 21 2 24 -4 2 -2 3 5 1 12 -3 12 14 0 34 -5 7 -2 14 7 18 13 5 12 9 -6 23
-17 14 -18 18 -5 18 9 0 14 -4 11 -9 -3 -4 0 -8 5 -8 14 0 14 17 0 25 -6 4 -8
13 -5 21 3 7 -3 18 -12 23 -10 6 -12 11 -4 11 6 0 12 5 12 11 0 5 -6 7 -12 3
-10 -6 -10 -4 -2 7 20 24 27 59 12 56 -7 -2 -10 -2 -5 0 4 3 7 9 7 14 0 6 -4
7 -10 4 -5 -3 -10 -1 -10 4 0 15 27 14 33 -1 4 -10 6 -10 6 -1 1 6 -3 15 -9
18 -5 3 -10 23 -10 43 1 35 2 36 15 18 8 -11 15 -15 15 -9 0 15 -25 34 -34 25
-4 -4 -6 0 -4 8 2 8 -3 14 -10 12 -8 -1 -11 2 -7 8 3 6 11 8 16 5 9 -6 14 10
9 30 -1 6 -3 15 -4 20 -1 6 -5 16 -9 22 -6 9 -3 11 8 7 11 -5 14 -2 9 10 -3 9
-11 13 -18 9 -7 -4 -7 -1 1 7 10 11 9 16 -5 27 -15 13 -15 13 6 3 12 -6 22
-17 22 -25 0 -7 4 -17 10 -20 7 -4 7 2 1 18 -6 14 -7 28 -4 31 4 3 0 6 -8 6
-8 0 -15 9 -15 20 0 11 4 20 9 20 4 0 5 5 1 12 -11 17 -12 78 -1 71 4 -3 6 -7
3 -10 -5 -6 18 -33 29 -33 3 0 -1 10 -9 22 -9 12 -16 30 -16 40 0 10 -5 18
-11 18 -5 0 -7 -5 -3 -12 5 -7 3 -8 -6 -3 -10 6 -9 11 5 22 11 7 22 13 27 13
4 0 8 5 8 11 0 8 -4 8 -14 0 -11 -9 -15 -8 -20 5 -8 21 -8 24 5 24 5 0 7 -6 3
-12 -5 -10 -3 -10 7 0 20 19 20 71 0 65 -11 -3 -10 0 3 11 17 14 18 16 3 16
-9 0 -17 5 -17 11 0 6 6 9 13 6 8 -3 14 1 14 9 0 7 -4 11 -8 8 -4 -2 -10 0
-14 6 -3 5 -3 10 2 10 4 0 13 11 20 25 6 14 7 23 3 20 -5 -3 -7 10 -6 30 2 19
0 32 -5 29 -5 -3 -6 -11 -2 -17 4 -7 0 -6 -10 2 -18 15 -23 26 -7 16 14 -9 12
8 -2 25 -11 12 -10 12 5 1 9 -7 17 -10 18 -5 0 5 2 17 4 27 2 9 -1 15 -6 11
-5 -3 -6 -11 -2 -17 4 -7 -2 -5 -13 3 -29 22 -30 24 -11 17 15 -6 17 -1 13 36
-2 23 -5 43 -6 45 -2 1 -3 5 -4 10 -1 4 -5 14 -11 22 -7 13 -6 13 7 2 14 -11
16 -9 13 22 -2 20 -6 40 -10 46 -3 5 -2 18 4 27 8 15 9 14 10 -7 1 -58 7 -84
21 -87 11 -3 11 -2 3 4 -7 5 -12 17 -12 28 0 11 -2 37 -4 57 -3 21 -1 36 3 33
5 -3 6 4 3 15 -3 11 -9 20 -14 20 -5 0 -6 -6 -3 -13 3 -8 -1 -19 -9 -25 -11
-9 -14 -8 -14 3 0 8 4 12 9 9 10 -6 3 39 -8 57 -4 7 -3 9 3 6 7 -4 10 3 9 18
-1 20 -5 24 -21 19 -18 -4 -18 -4 -2 6 19 12 23 30 6 30 -5 0 -7 -4 -4 -10 3
-5 1 -10 -4 -10 -15 0 -14 13 2 29 10 11 7 12 -13 7 -14 -3 -19 -3 -12 0 6 3
9 11 6 16 -4 6 -2 8 4 4 6 -3 14 -1 18 5 4 7 3 9 -4 5 -6 -3 -13 -2 -16 3 -4
5 2 12 11 14 17 4 17 5 0 6 -10 0 -20 -6 -23 -14 -4 -8 -11 -15 -16 -15 -7 0
-7 4 0 13 14 16 24 69 12 62 -11 -7 -33 32 -25 44 3 5 -4 7 -15 4 -19 -5 -19
-7 -4 -18 13 -9 14 -16 7 -29 -9 -17 -11 -17 -16 -2 -4 10 -3 15 3 11 6 -3 10
-1 10 4 0 6 -3 11 -7 11 -5 0 -21 12 -36 26 -24 21 -27 27 -16 40 7 8 8 14 3
13 -21 -4 -28 2 -14 12 12 9 12 10 -3 5 -10 -3 -27 -1 -37 4 -10 5 -20 7 -23
2 -2 -4 -2 -1 0 6 2 9 -5 13 -20 12 -36 -3 -47 -1 -47 11 0 8 6 7 18 -2 15
-12 16 -12 5 2 -7 9 -9 20 -5 24 4 5 1 4 -7 0 -11 -6 -13 -4 -8 9 4 11 3 15
-4 11 -6 -4 -8 -12 -6 -19 6 -16 -41 -38 -50 -24 -3 6 -1 8 4 5 6 -4 16 -1 22
7 8 10 6 15 -12 22 -12 6 -29 10 -37 9 -8 0 -21 6 -28 15 -12 13 -13 13 -8 -2
6 -21 -4 -23 -23 -5 -11 10 -11 8 -1 -13 10 -20 10 -23 0 -13 -7 6 -18 10 -24
9 -6 -2 -8 -1 -3 1 16 10 6 20 -18 18 -13 -2 -29 3 -36 11 -6 8 -16 14 -22 14
-6 0 -2 -7 9 -15 19 -14 19 -14 -1 -15 -12 0 -27 -6 -34 -12 -11 -10 -13 -10
-7 0 7 11 -5 17 -27 13 -5 -1 -6 9 -3 21 3 13 3 17 0 11 -8 -18 -27 -16 -20 2
8 22 -2 18 -14 -5 -8 -15 -8 -20 1 -18 6 2 13 -5 14 -15 3 -18 3 -18 -16 -1
-12 11 -19 13 -19 5 0 -7 -4 -9 -10 -6 -5 3 -10 11 -10 16 0 6 5 7 10 4 6 -3
10 1 10 9 0 8 -5 18 -10 21 -6 4 -9 1 -8 -6 5 -19 -20 -22 -25 -2 -4 17 -5 17
-6 1 -1 -22 -2 -22 -45 3 -31 18 -37 19 -42 5 -3 -8 -3 -19 0 -25 4 -5 1 -13
-5 -17 -7 -4 -9 -3 -5 4 3 6 2 13 -3 17 -6 3 -8 13 -5 23 5 14 4 14 -4 3 -6
-8 -8 -20 -5 -28 3 -7 0 -13 -6 -13 -6 0 -11 7 -11 15 0 8 -4 16 -10 16 -20 3
-25 4 -38 13 -11 7 -11 4 -1 -13z m149 -30 c-1 -14 -2 -14 -11 1 -5 10 -16 15
-24 12 -9 -4 -15 0 -15 10 0 13 4 14 25 4 14 -6 25 -18 25 -27z m-524 -8 c-10
-10 -19 5 -10 18 6 11 8 11 12 0 2 -7 1 -15 -2 -18z m208 10 c5 -13 4 -14 -9
-3 -12 10 -15 10 -16 -1 0 -11 -2 -11 -6 -1 -4 10 -9 9 -19 -5 -11 -13 -14
-14 -12 -3 4 19 12 25 37 27 11 1 22 -5 25 -14z m-170 -14 c-3 -5 -10 -7 -15
-3 -5 3 -7 10 -3 15 3 5 10 7 15 3 5 -3 7 -10 3 -15z m530 13 c3 -5 -1 -9 -9
-9 -8 0 -12 4 -9 9 3 4 7 8 9 8 2 0 6 -4 9 -8z m203 -34 c-3 -8 -6 -5 -6 6 -1
11 2 17 5 13 3 -3 4 -12 1 -19z m151 -3 c4 -5 -1 -5 -10 -2 -11 4 -18 1 -18
-6 0 -8 -3 -8 -9 2 -6 9 -11 10 -15 2 -4 -6 -12 -9 -17 -5 -5 3 -7 9 -4 13 6
10 63 6 73 -4z m-1118 -45 c0 -5 -5 -10 -11 -10 -5 0 -7 5 -4 10 3 6 8 10 11
10 2 0 4 -4 4 -10z m1280 -40 c0 -7 -13 -7 -38 -1 -2 1 -1 5 3 11 6 10 35 2
35 -10z m113 -111 c5 -3 2 -9 -5 -12 -9 -3 -14 3 -15 15 -1 11 1 16 5 12 4 -5
11 -12 15 -15z m-1458 -49 c3 -5 1 -10 -4 -10 -6 0 -11 5 -11 10 0 6 2 10 4
10 3 0 8 -4 11 -10z m-12 -34 c4 -10 1 -13 -8 -9 -8 3 -12 9 -9 14 7 12 11 11
17 -5z m727 -21 c-7 -8 -10 -15 -7 -15 3 0 13 -3 23 -7 13 -5 15 -3 9 7 -5 9
-4 11 3 6 7 -4 12 -1 13 6 0 10 2 11 6 0 4 -10 8 -10 19 -1 12 10 13 9 8 -4
-3 -10 2 -20 15 -26 17 -10 19 -8 16 9 -2 11 1 23 7 26 7 4 8 2 4 -4 -4 -7 -2
-12 4 -12 6 0 9 -4 5 -9 -3 -5 0 -13 7 -18 11 -6 40 -9 175 -14 13 -1 20 -5
17 -10 -3 -5 7 -4 21 1 34 13 45 12 22 -1 -18 -11 -14 -29 6 -29 7 0 6 4 -3
10 -12 8 -11 10 7 10 12 0 25 -5 29 -12 5 -7 3 -8 -6 -3 -10 6 -12 4 -7 -7 3
-9 0 -21 -6 -27 -9 -10 -9 -12 3 -9 8 2 14 -2 13 -9 -2 -7 4 -10 13 -6 11 4
12 8 4 13 -8 5 -6 9 6 14 10 4 15 4 11 0 -4 -4 -1 -14 6 -22 9 -13 9 -14 0 -8
-8 4 -13 1 -13 -8 0 -9 5 -16 12 -16 6 0 8 -3 5 -6 -4 -4 -13 -2 -20 4 -10 9
-14 8 -14 -3 0 -8 4 -12 9 -9 4 3 8 1 8 -5 0 -6 8 -8 18 -5 14 5 14 4 2 -4 -8
-6 -17 -9 -21 -6 -4 2 -11 -1 -15 -7 -4 -8 -3 -9 4 -5 7 4 12 2 12 -5 0 -8 4
-8 15 1 9 7 18 10 22 6 3 -3 1 -6 -5 -6 -7 0 -12 -9 -12 -20 0 -11 6 -20 13
-20 8 0 7 -4 -3 -10 -13 -9 -13 -11 0 -20 8 -5 11 -10 5 -10 -5 0 -3 -5 5 -10
12 -8 12 -10 1 -10 -11 0 -11 -3 -1 -15 10 -12 8 -14 -9 -10 -11 2 -24 -1 -27
-7 -4 -6 -3 -8 3 -5 6 4 10 -6 11 -24 1 -27 -1 -29 -16 -17 -13 11 -14 11 -7
-2 5 -8 11 -24 12 -35 2 -11 11 -26 21 -33 15 -12 13 -13 -16 -9 -18 3 -30 1
-26 -4 3 -5 10 -7 15 -4 5 4 9 3 10 -2 0 -4 2 -20 4 -36 3 -19 0 -25 -8 -21
-7 4 -8 3 -4 -2 5 -5 13 -9 19 -9 6 0 12 -8 14 -19 2 -14 0 -16 -9 -7 -22 22
-26 10 -7 -24 24 -43 24 -45 5 -45 -9 0 -15 7 -13 17 2 10 -4 18 -15 19 -9 1
-11 0 -4 -2 13 -5 15 -64 2 -84 -3 -5 1 -7 9 -4 8 3 12 12 10 19 -7 17 12 29
22 14 4 -8 3 -9 -4 -5 -7 4 -12 2 -12 -3 0 -6 6 -11 13 -12 9 0 9 -2 -1 -6 -6
-2 -9 -10 -6 -15 4 -6 2 -8 -4 -4 -6 3 -13 2 -17 -4 -6 -9 8 -14 28 -11 5 1 5
-3 2 -9 -4 -6 -13 -9 -19 -7 -17 7 -43 -10 -32 -20 5 -4 11 -2 13 5 3 6 9 9
14 6 6 -3 5 -12 -3 -22 -11 -13 -10 -15 4 -9 10 3 20 1 24 -5 4 -6 3 -8 -4 -4
-6 3 -13 2 -17 -3 -3 -5 1 -14 10 -18 12 -7 11 -11 -8 -22 -20 -13 -21 -13 -8
2 7 10 9 17 5 17 -5 0 -15 -9 -22 -20 -7 -12 -18 -18 -24 -14 -7 4 -8 3 -4 -5
4 -6 13 -8 19 -4 6 4 19 8 29 8 13 1 15 -2 7 -17 -9 -17 -5 -22 14 -19 5 1 6
-3 2 -9 -3 -6 -11 -7 -17 -4 -7 5 -9 -2 -4 -19 3 -15 1 -29 -6 -33 -7 -5 -8
-3 -3 7 7 11 6 12 -7 2 -8 -7 -17 -10 -20 -7 -3 3 -9 1 -12 -4 -3 -5 10 -8 30
-7 19 1 37 -2 40 -7 3 -5 0 -7 -7 -6 -18 4 -18 -41 0 -52 26 -15 3 -11 -32 5
-24 12 -28 12 -14 2 19 -16 23 -37 5 -37 -6 0 -8 -3 -5 -6 4 -4 13 -1 22 6 8
7 15 8 15 2 0 -5 -10 -16 -22 -25 -22 -14 -22 -15 -3 -14 14 2 20 -4 20 -18 1
-11 7 -19 14 -17 7 1 10 -2 6 -8 -3 -6 -11 -8 -16 -5 -12 8 -11 -12 2 -37 8
-15 8 -19 0 -14 -6 4 -11 3 -11 -3 0 -5 8 -15 18 -20 16 -10 16 -10 -2 -11
-11 0 -16 -3 -13 -7 4 -3 2 -12 -4 -20 -14 -17 2 -17 21 -1 8 7 6 3 -4 -9 -11
-13 -16 -23 -13 -23 4 0 -3 -11 -15 -25 -11 -13 -25 -22 -30 -19 -4 3 -8 0 -8
-5 0 -6 4 -11 9 -11 14 0 21 -29 9 -36 -6 -4 -8 -3 -5 3 4 6 -6 16 -22 21 -26
9 -29 8 -25 -6 5 -14 2 -13 -10 2 -12 15 -16 16 -16 5 -1 -11 -4 -10 -14 4
-11 15 -15 15 -25 3 -9 -11 -8 -14 5 -12 9 0 18 -5 20 -12 1 -7 0 -8 -3 -2 -2
5 -9 10 -14 10 -6 0 -7 -5 -3 -11 4 -8 0 -8 -15 0 -12 7 -26 9 -31 6 -5 -3
-12 0 -16 6 -4 7 -3 9 3 6 5 -3 10 0 10 8 0 11 -4 12 -14 4 -7 -6 -13 -8 -13
-3 0 5 -6 2 -13 -6 -7 -8 -23 -16 -37 -17 -14 -1 -37 -4 -52 -7 -16 -4 -28 -3
-28 2 0 4 11 9 25 10 46 3 52 5 52 18 0 9 -6 8 -23 -3 -28 -18 -34 -18 -45 -1
-7 10 -9 10 -9 1 0 -7 -9 -13 -21 -13 -11 0 -18 4 -15 8 3 5 -1 9 -9 9 -13 0
-12 -3 1 -18 16 -17 15 -18 -14 -7 -17 7 -28 16 -25 22 3 5 1 6 -5 2 -7 -4
-12 -2 -12 5 0 7 -3 9 -7 6 -3 -4 2 -16 12 -27 10 -11 13 -20 7 -20 -7 0 -12
5 -12 10 0 6 -10 10 -22 10 -22 -1 -22 -1 -5 -14 10 -8 14 -17 9 -20 -12 -7
-25 21 -24 49 1 16 0 17 -4 2 -3 -9 -10 -17 -15 -17 -6 0 -8 -4 -5 -9 3 -5 -2
-15 -11 -22 -15 -12 -16 -12 -8 1 14 23 14 34 -1 48 -9 8 -14 9 -14 2 0 -6 -4
-8 -10 -5 -5 3 -7 0 -4 -8 3 -9 -2 -13 -18 -12 -13 1 -27 -3 -31 -9 -6 -7 -7
-6 -4 4 2 8 9 15 14 15 6 0 14 3 18 7 8 8 -13 4 -37 -7 -10 -4 -16 -10 -13
-14 2 -4 -2 -8 -10 -8 -8 0 -13 2 -10 5 2 2 -2 11 -10 19 -11 11 -19 11 -35 3
-16 -9 -24 -8 -36 5 -22 21 -106 2 -117 -27 -4 -8 -6 -9 -6 -1 -1 6 7 20 17
29 16 17 16 18 0 11 -11 -4 -18 -2 -18 6 0 8 -3 7 -9 -2 -5 -8 -7 -20 -4 -27
2 -6 -1 -15 -8 -20 -9 -5 -10 -2 -6 9 4 10 2 17 -5 17 -6 0 -5 7 3 18 13 15
12 16 -3 3 -12 -9 -18 -10 -18 -2 0 6 -5 11 -12 11 -7 0 -6 -6 4 -17 16 -19
14 -43 -3 -43 -6 0 -8 3 -5 8 2 4 -2 18 -10 32 l-14 25 4 -28 c3 -15 1 -25 -4
-22 -4 3 -11 -1 -14 -7 -3 -7 -3 -3 -1 9 3 12 0 25 -6 29 -7 4 -9 3 -6 -3 4
-6 0 -16 -8 -23 -13 -11 -14 -10 -9 5 4 10 1 21 -7 26 -22 13 -35 11 -16 -3
24 -19 6 -45 -19 -28 -16 9 -16 11 -2 6 10 -3 19 -2 22 2 3 5 -12 9 -32 10
-28 2 -33 0 -22 -8 8 -5 11 -10 5 -10 -5 1 -18 7 -28 15 -11 7 -26 11 -35 8
-11 -5 -13 -3 -7 8 8 12 6 12 -8 1 -9 -8 -22 -10 -28 -6 -8 5 -9 3 -5 -5 5 -7
15 -10 23 -7 8 3 11 1 8 -4 -3 -6 -1 -10 4 -10 6 0 11 -4 11 -9 0 -5 -15 -1
-34 8 -18 9 -32 19 -29 24 2 4 -1 7 -6 7 -6 0 -11 -10 -12 -22 0 -22 -1 -22
-8 -3 -5 11 -6 24 -3 29 3 6 -10 -1 -29 -14 l-34 -24 20 23 20 24 -32 -17
c-31 -15 -32 -15 -28 4 2 11 7 25 10 30 4 6 1 9 -7 8 -8 -2 -12 5 -10 17 2 16
1 17 -7 5 -7 -10 -11 -11 -11 -2 0 6 -6 12 -14 12 -8 0 -18 5 -22 12 -5 8 -2
9 9 5 20 -8 47 1 47 15 0 6 -7 5 -15 -2 -11 -9 -19 -10 -26 -3 -8 8 -7 13 2
18 8 6 10 4 4 -5 -5 -9 -4 -11 4 -6 15 10 4 27 -14 20 -9 -4 -13 1 -12 14 0
12 5 18 9 16 4 -3 8 -1 8 5 0 6 8 7 18 4 16 -7 16 -6 0 11 -23 22 -23 30 0 21
13 -5 14 -3 5 6 -14 14 -34 3 -26 -16 3 -8 0 -15 -7 -15 -6 0 -8 5 -5 10 3 6
0 10 -7 10 -10 0 -10 2 0 9 8 4 14 12 14 17 1 5 11 8 22 7 15 -1 16 0 4 3 -10
3 -18 10 -18 15 0 6 -5 7 -12 3 -7 -5 -8 -3 -2 7 4 8 9 25 10 37 0 13 7 28 15
32 7 5 10 13 5 17 -4 4 -14 0 -21 -10 -12 -17 -13 -16 -11 6 1 17 6 23 15 19
10 -4 12 -1 5 9 -12 20 -11 42 4 58 9 9 10 17 2 26 -8 9 -8 15 0 20 5 3 10 11
10 18 0 6 -6 3 -13 -8 -11 -14 -16 -15 -22 -5 -6 9 -4 11 5 5 9 -6 10 -2 5 15
-6 17 -4 21 6 14 12 -6 12 -5 0 9 -7 9 -10 17 -6 17 4 0 2 7 -5 15 -11 13 -10
18 6 29 14 11 21 11 26 3 9 -15 10 -4 2 17 -3 9 -14 16 -23 17 -12 0 -11 2 4
8 13 5 28 3 43 -7 20 -13 22 -13 16 2 -3 9 -10 13 -15 10 -5 -3 -9 -1 -9 4 0
6 7 13 16 16 8 3 13 2 10 -3 -3 -5 1 -12 10 -15 8 -3 12 -11 8 -17 -4 -8 -1
-8 13 -1 12 7 25 7 34 1 12 -7 12 -9 0 -9 -8 0 -12 -3 -8 -6 10 -10 26 6 21
21 -4 8 -10 13 -14 10 -4 -3 -10 2 -13 10 -5 12 -2 12 18 3 13 -6 24 -14 23
-17 -2 -21 4 -31 14 -25 7 4 8 3 4 -5 -4 -6 -11 -9 -16 -6 -5 3 -11 1 -15 -5
-5 -9 15 -15 38 -11 5 1 6 -3 2 -8 -3 -6 -11 -8 -18 -5 -8 3 -13 -4 -13 -20 0
-17 4 -22 15 -19 11 3 10 0 -3 -11 -11 -9 -15 -16 -10 -16 6 0 16 -12 23 -27
l12 -28 -20 25 c-11 14 -23 21 -27 17 -4 -4 -2 -7 4 -7 14 0 14 -80 0 -97 -6
-7 -7 -13 -3 -13 4 0 2 -6 -4 -14 -16 -19 15 -70 36 -62 8 3 12 2 9 -3 -3 -5
4 -21 16 -37 13 -15 17 -25 10 -20 -6 4 -12 2 -12 -3 0 -6 4 -11 9 -11 6 0 9
-9 8 -20 -1 -11 -5 -20 -10 -20 -4 0 -5 -5 -2 -11 9 -13 15 -7 20 21 2 12 7
25 11 29 4 3 5 -1 2 -10 -4 -9 6 -29 22 -47 27 -32 48 -44 34 -19 -5 8 -2 8 9
-2 9 -7 17 -10 17 -6 0 4 6 2 13 -4 8 -6 17 -8 21 -4 4 4 4 -1 0 -11 -5 -14
-9 -15 -16 -4 -8 10 -9 10 -6 -1 2 -8 14 -15 26 -16 11 -1 19 2 16 6 -2 4 0
10 5 13 5 4 8 -5 7 -18 -2 -16 1 -23 10 -19 7 2 10 11 7 19 -3 8 0 14 6 14 6
0 10 -5 8 -11 -1 -6 4 -14 12 -17 9 -3 11 0 6 8 -6 9 -3 10 11 2 26 -14 36
-13 58 6 11 9 16 12 13 5 -10 -17 13 -28 25 -12 8 11 9 11 5 -2 -3 -9 -1 -22
4 -30 7 -11 9 -11 9 -1 0 7 4 11 9 7 5 -3 12 -1 16 4 3 6 -3 8 -14 6 -14 -3
-18 1 -14 12 5 12 7 12 14 1 5 -7 9 -9 9 -4 0 5 7 3 15 -4 8 -7 12 -16 9 -21
-3 -5 -3 -9 0 -9 3 0 10 9 16 20 9 16 8 18 -5 14 -8 -4 -15 -1 -15 5 0 6 6 10
13 8 6 -1 11 4 9 11 -1 8 2 11 8 7 6 -3 8 -11 5 -16 -9 -13 9 -11 23 3 7 7 12
9 12 5 0 -3 -10 -16 -22 -28 l-23 -21 22 11 c12 6 25 16 28 21 3 6 11 10 18
10 8 0 8 -3 -1 -12 -20 -20 -14 -30 6 -10 10 9 17 24 15 32 -3 11 -1 10 7 -2
6 -10 17 -15 26 -11 11 4 12 9 3 19 -19 23 -4 16 17 -8 10 -12 13 -18 7 -14
-8 4 -13 2 -13 -4 0 -7 6 -10 14 -7 7 3 19 0 27 -6 7 -7 5 1 -5 16 -17 27 -17
28 4 15 11 -7 20 -16 20 -21 0 -4 5 -5 10 -2 6 4 8 11 5 16 -3 5 2 6 11 2 10
-4 15 -2 11 4 -3 5 1 10 9 10 11 0 9 -6 -8 -24 -12 -12 -18 -26 -15 -30 4 -3
7 -2 7 3 0 6 14 21 31 33 18 13 29 19 25 12 -11 -18 5 -13 21 7 8 9 12 11 8 4
-3 -6 1 -15 9 -18 19 -7 48 14 39 29 -3 6 -1 7 6 3 6 -4 8 -12 5 -18 -4 -6 1
-8 15 -3 13 4 21 2 21 -5 0 -10 40 -7 59 4 5 4 8 17 7 30 -2 18 1 22 16 18 13
-3 16 -8 8 -17 -7 -8 -6 -12 4 -12 9 0 12 10 11 29 -2 21 0 26 10 18 13 -11
25 -4 25 14 0 6 -4 5 -9 -2 -7 -11 -9 -11 -14 2 -4 9 2 21 13 29 11 8 17 17
12 22 -4 5 -2 5 4 2 16 -9 48 39 33 49 -7 4 -7 10 -1 16 6 6 16 7 22 3 9 -6 9
-10 -1 -16 -8 -5 -9 -9 -3 -9 6 0 18 8 25 17 10 11 10 14 2 9 -7 -4 -13 -3
-13 3 0 5 6 12 13 15 6 3 -4 3 -23 0 -26 -3 -31 -2 -20 6 12 8 13 10 1 10 -8
0 -11 3 -8 6 4 4 13 1 22 -6 11 -9 15 -9 15 -1 0 7 5 9 13 5 6 -4 9 -3 4 1 -4
5 1 17 10 28 10 11 13 17 6 14 -18 -11 -45 22 -37 45 5 15 3 19 -7 13 -11 -6
-12 -5 -1 6 14 15 16 33 3 25 -5 -4 -1 11 9 31 13 27 15 43 9 55 -5 10 -7 18
-3 18 4 0 -1 10 -12 22 -10 12 -14 19 -9 16 6 -4 22 2 35 13 14 10 20 19 13
19 -6 0 -15 -5 -19 -11 -4 -8 -9 -7 -15 2 -12 19 -11 29 2 29 5 0 7 -6 3 -12
-5 -10 -4 -10 6 -1 15 14 4 36 -13 26 -9 -5 -9 -3 0 8 10 12 9 20 -4 40 -16
23 -16 23 0 10 12 -9 17 -10 17 -2 0 7 5 9 11 5 8 -5 8 -1 0 14 -16 30 -14 42
7 36 14 -5 14 -3 -2 10 -11 9 -16 16 -11 16 5 0 4 5 -3 12 -13 13 -17 72 -4
64 5 -3 9 1 9 8 0 8 -6 12 -14 9 -12 -5 -17 -17 -14 -35 0 -4 -7 -4 -16 -1
-11 4 -13 8 -5 11 16 5 15 29 0 36 -7 3 -2 3 12 0 14 -3 20 -2 14 3 -6 4 -10
18 -9 30 1 19 -1 20 -18 12 -10 -6 -21 -8 -25 -5 -3 3 1 6 8 6 10 0 11 3 3 11
-13 13 -6 42 8 33 5 -3 9 -10 9 -15 0 -6 -5 -7 -12 -3 -7 5 -8 3 -3 -5 5 -9
10 -10 18 -2 13 13 -10 44 -27 34 -17 -11 -37 -12 -30 -2 3 5 -1 9 -8 10 -9 0
-10 2 -1 5 16 7 5 34 -13 34 -8 0 -14 7 -14 15 0 8 -9 19 -20 25 -11 6 -19 7
-18 3 2 -4 -1 -9 -7 -10 -5 -1 -8 6 -7 15 3 14 2 14 -14 2 -15 -14 -16 -13
-10 10 5 18 4 21 -3 11 -5 -8 -16 -16 -25 -17 -13 -2 -14 2 -5 18 7 13 7 18 1
14 -6 -3 -12 -2 -14 3 -1 5 -10 2 -18 -7 -13 -14 -12 -15 3 -9 11 4 16 3 12
-3 -6 -10 -40 -8 -51 3 -11 10 -46 8 -40 -2 7 -10 -20 -9 -30 2 -4 4 -14 1
-23 -5 -13 -10 -14 -10 -3 2 16 18 15 27 -3 27 -8 0 -11 -5 -8 -10 4 -7 -1 -8
-13 -3 -10 4 -23 9 -29 10 -5 1 -17 5 -25 10 -12 7 -13 6 -2 -5 6 -7 12 -19
12 -27 0 -10 -4 -10 -16 3 -19 19 -32 12 -15 -9 9 -11 9 -16 0 -22 -7 -4 -9
-3 -6 3 8 12 -30 49 -40 40 -3 -4 -1 -7 7 -7 10 0 10 -4 -1 -17 -12 -15 -12
-16 6 -9 16 6 18 5 7 -5 -10 -11 -16 -10 -30 5 -9 11 -11 16 -5 12 9 -5 11 -2
7 9 -8 20 -17 12 -19 -18 -2 -23 -21 -30 -42 -15 -6 5 -14 5 -17 -1 -4 -5 2
-14 11 -20 16 -9 15 -10 -7 -8 -16 1 -24 -3 -22 -11 1 -8 -2 -11 -8 -7 -9 6
-14 -7 -11 -27 0 -5 -3 -8 -7 -8 -5 0 -9 14 -9 30 0 21 4 29 13 26 18 -7 29
13 15 27 -9 9 -11 8 -6 -3 4 -12 -3 -15 -32 -16 -21 -1 -32 1 -25 3 10 4 8 9
-5 19 -17 13 -17 14 0 8 9 -3 17 -4 17 -1 0 3 -8 14 -17 23 -16 16 -16 17 -1
12 11 -5 18 0 21 13 3 10 2 19 -1 19 -4 0 -16 13 -26 28 l-19 27 24 -21 c39
-34 56 -40 26 -9 -18 18 -24 31 -17 33 9 3 9 7 -1 13 -11 7 -10 9 4 9 14 0 17
-5 12 -19 -3 -11 -2 -22 3 -25 5 -3 9 8 10 24 0 17 -3 30 -7 30 -4 0 -8 7 -8
15 0 22 12 18 26 -7 6 -13 9 -15 7 -5 -8 27 3 45 25 40 11 -3 19 0 19 6 0 7
-6 9 -12 5 -7 -4 -9 -3 -5 1 4 5 14 10 22 11 12 2 12 -2 5 -17 -10 -18 -23
-24 -45 -19 -5 1 -6 -2 -2 -6 12 -12 37 -13 37 -2 0 6 7 8 14 5 10 -4 13 -1
10 7 -3 8 0 17 7 22 8 5 10 3 5 -7 -4 -8 0 -5 10 6 14 17 16 17 11 3 -4 -10
-2 -18 3 -18 5 0 14 8 20 18 10 15 10 15 8 -3 -3 -17 3 -20 44 -20 25 -1 54
-7 64 -15 16 -13 16 -12 -1 12 -13 16 -24 23 -29 17 -14 -13 -23 -11 -30 7 -5
13 -4 14 7 6 8 -7 17 -9 21 -5 13 13 35 11 48 -5 11 -13 11 -14 -1 -7 -10 5
-12 4 -7 -3 5 -9 13 -9 27 -2 13 8 26 7 42 -1 19 -11 20 -10 10 3 -10 11 -10
17 -1 26 17 17 23 15 8 -3z m-174 -4 c-4 -5 0 -12 6 -14 8 -3 6 -6 -4 -6 -18
-1 -24 10 -11 22 9 10 15 8 9 -2z m124 -1 c0 -5 -2 -10 -4 -10 -3 0 -8 5 -11
10 -3 6 -1 10 4 10 6 0 11 -4 11 -10z m213 -16 c-5 -14 -3 -15 18 -4 17 10 24
10 27 1 3 -9 8 -9 20 1 13 11 14 11 8 -1 -6 -10 -4 -12 10 -7 11 3 26 1 34 -4
9 -5 19 -5 27 2 11 8 12 7 7 -6 -4 -11 -12 -15 -23 -10 -9 4 -47 8 -86 9 -87
3 -83 2 -59 20 24 18 25 18 17 -1z m187 -25 c0 -5 -4 -9 -8 -9 -5 0 -9 7 -9
15 0 8 4 12 9 9 4 -3 8 -9 8 -15z m80 -53 c0 -2 -8 -10 -17 -17 -16 -13 -17
-12 -4 4 13 16 21 21 21 13z m-816 -62 c3 -8 2 -12 -4 -9 -6 3 -10 10 -10 16
0 14 7 11 14 -7z m-580 -9 c-4 -8 -10 -12 -15 -9 -5 3 -9 0 -9 -7 0 -7 -3 -9
-7 -5 -5 4 1 14 11 22 25 18 27 18 20 -1z m865 -28 c8 -10 7 -14 -2 -14 -8 0
-14 6 -14 14 0 7 1 13 2 13 2 0 8 -6 14 -13z m298 -60 c0 -8 -6 -14 -14 -14
-9 0 -10 4 -2 14 6 7 12 13 14 13 1 0 2 -6 2 -13z m-561 -34 c-4 -4 -12 -1
-19 7 -9 10 -9 11 1 6 7 -4 12 -2 13 6 0 11 2 11 6 0 3 -7 2 -16 -1 -19z m841
-89 c-3 -3 -12 -4 -19 -1 -8 3 -5 6 6 6 11 1 17 -2 13 -5z m-2 -62 c-6 -7 -34
11 -29 19 3 5 11 3 19 -4 7 -6 12 -13 10 -15z m-844 -19 c13 -16 12 -17 -3 -4
-10 7 -18 15 -18 17 0 8 8 3 21 -13z m34 8 c3 -5 2 -12 -3 -15 -5 -3 -9 1 -9
9 0 17 3 19 12 6z m1165 -26 c0 -12 -19 -12 -23 0 -4 9 -1 12 9 8 7 -3 14 -7
14 -8z m-1153 -11 c-3 -3 -12 -4 -19 -1 -8 3 -5 6 6 6 11 1 17 -2 13 -5z m-27
-14 c3 -1 8 -2 12 -1 4 0 5 -5 2 -12 -7 -19 42 -62 51 -46 6 8 4 10 -5 4 -9
-6 -11 -4 -5 5 5 9 4 11 -3 6 -8 -5 -10 -1 -6 9 6 14 8 13 20 -4 8 -11 11 -28
8 -38 -4 -14 -4 -15 4 -4 12 17 33 6 25 -14 -3 -8 0 -15 7 -15 6 0 9 4 5 9 -3
5 -1 12 4 16 5 3 15 -3 21 -12 11 -17 11 -17 6 0 -6 20 -2 21 25 6 11 -5 18
-13 15 -17 -2 -4 4 -8 14 -8 17 0 17 2 -3 21 -12 12 -25 20 -28 18 -4 -1 -13
5 -20 15 -13 15 -12 16 4 3 9 -7 17 -10 17 -5 0 4 5 3 12 -4 9 -9 16 -8 32 6
21 17 21 17 2 -5 -20 -24 -16 -29 12 -14 12 6 24 5 37 -5 10 -8 14 -14 9 -14
-6 0 -15 5 -22 12 -9 9 -12 9 -12 -1 0 -7 -5 -9 -12 -5 -7 4 -8 3 -4 -4 4 -6
14 -8 23 -5 10 4 14 2 10 -4 -5 -7 0 -9 12 -6 23 6 38 -14 22 -30 -6 -6 -11
-16 -11 -21 0 -6 5 -4 10 4 7 11 10 3 10 -28 0 -24 -4 -41 -9 -38 -12 8 -8
-21 5 -34 7 -7 11 -6 11 4 0 8 -5 12 -10 9 -6 -3 -7 -1 -3 6 4 6 12 8 18 5 8
-5 9 -1 4 12 -6 15 -5 16 5 7 8 -8 9 -16 2 -25 -6 -7 -9 -21 -8 -30 2 -10 -1
-18 -5 -18 -5 0 -7 -17 -5 -37 2 -21 1 -29 -2 -19 -4 14 -7 15 -13 6 -5 -8 -7
-3 -7 14 0 14 3 23 7 21 11 -7 6 22 -5 32 -4 4 -5 3 -1 -4 3 -6 1 -15 -5 -18
-5 -4 -8 -13 -6 -19 9 -22 -7 -34 -53 -39 -25 -3 -55 -8 -67 -11 -13 -3 -25
-1 -28 4 -3 5 4 7 15 5 11 -2 18 0 15 5 -7 11 -29 7 -51 -10 -11 -9 -15 -10
-10 -2 4 6 2 12 -3 12 -6 0 -11 -4 -11 -9 0 -6 -8 -9 -18 -8 -21 1 -25 24 -8
47 9 13 9 13 -6 2 -10 -8 -20 -22 -23 -33 -4 -10 -11 -19 -17 -19 -6 0 -6 6 2
15 7 9 10 19 6 22 -4 4 -10 2 -15 -5 -4 -6 -7 3 -7 23 0 21 4 31 11 27 5 -3 5
1 -2 9 -14 18 -11 51 5 57 8 2 5 12 -8 29 -15 20 -17 29 -9 39 6 8 8 14 4 14
-4 0 -1 8 6 18 13 15 12 16 -3 3 -16 -12 -18 -11 -18 6 0 10 -5 24 -11 30 -7
7 -4 12 10 16 13 3 25 -1 31 -11 8 -15 9 -14 6 3 -8 42 -19 65 -28 59 -5 -3
-5 -11 2 -19 7 -8 7 -16 2 -19 -6 -3 -15 1 -21 8 -9 10 -9 16 -1 21 8 5 8 10
0 20 -9 10 -7 13 7 10 10 -2 20 -4 23 -5z m37 -19 c0 -11 -5 -18 -9 -15 -4 3
-5 11 -1 19 7 21 12 19 10 -4z m649 -6 c1 -8 -3 -18 -8 -22 -6 -3 -8 -1 -4 5
3 6 2 13 -4 17 -6 4 -8 11 -4 16 7 12 17 4 20 -16z m486 18 c-6 -2 -9 -10 -6
-15 4 -7 2 -8 -5 -4 -13 9 -5 26 12 25 9 0 8 -2 -1 -6z m-355 -10 c-4 -3 -1
-13 6 -22 11 -14 10 -14 -5 -2 -21 15 -23 31 -6 31 6 0 8 -3 5 -7z m-1742 -21
c-3 -3 -11 0 -18 7 -9 10 -8 11 6 5 10 -3 15 -9 12 -12z m1049 -21 c12 -14 14
-19 4 -17 -22 3 -39 17 -33 27 8 12 9 12 29 -10z m564 -26 c-3 -3 -9 2 -12 12
-6 14 -5 15 5 6 7 -7 10 -15 7 -18z m-724 -21 c3 -8 2 -12 -4 -9 -6 3 -10 10
-10 16 0 14 7 11 14 -7z m-901 -12 c15 -16 15 -19 2 -19 -8 0 -13 3 -10 5 3 3
0 11 -6 19 -17 20 -5 16 14 -5z m919 -27 c0 -5 -5 -11 -11 -13 -6 -2 -11 4
-11 13 0 9 5 15 11 13 6 -2 11 -8 11 -13z m1198 11 c0 -2 -9 -6 -20 -9 -11 -3
-18 -1 -14 4 5 9 34 13 34 5z m0 -26 c0 -5 -2 -10 -4 -10 -3 0 -8 5 -11 10 -3
6 -1 10 4 10 6 0 11 -4 11 -10z m-1185 -59 c-3 -6 -14 -9 -25 -8 -10 1 -16 6
-12 12 7 10 9 16 11 37 0 7 8 2 17 -10 8 -12 13 -26 9 -31z m-11 -62 c-3 -5
-10 -7 -15 -3 -5 3 -7 10 -3 15 3 5 10 7 15 3 5 -3 7 -10 3 -15z m700 -7 c2
-4 -2 -16 -10 -27 -8 -10 -14 -14 -14 -8 0 7 5 15 11 19 8 4 7 9 -2 15 -10 6
-10 9 -2 9 6 0 14 -3 17 -8z m-700 -27 c-4 -8 -11 -12 -16 -9 -6 4 -5 10 3 15
19 12 19 11 13 -6z m-350 -41 c3 -8 2 -12 -4 -9 -6 3 -10 10 -10 16 0 14 7 11
14 -7z m-193 -47 c-1 -12 -15 -9 -19 4 -3 6 1 10 8 8 6 -3 11 -8 11 -12z m175
-74 c-1 -16 -5 -34 -9 -40 -5 -7 -4 -13 0 -13 5 0 15 6 23 13 8 6 6 2 -4 -11
l-19 -22 -14 20 c-12 17 -12 24 -3 35 7 8 9 15 5 15 -4 0 -2 7 5 15 16 20 16
20 16 -12z m1074 2 c-7 -8 -16 -12 -21 -9 -13 8 -1 24 18 24 13 0 13 -3 3 -15z
m460 -30 c7 -9 8 -15 2 -15 -5 0 -12 7 -16 15 -3 8 -4 15 -2 15 2 0 9 -7 16
-15z m-1492 -80 c-3 -3 -9 2 -12 12 -6 14 -5 15 5 6 7 -7 10 -15 7 -18z m982
21 c0 -2 -8 -10 -17 -17 -16 -13 -17 -12 -4 4 13 16 21 21 21 13z m-1524 -98
c4 -6 3 -8 -3 -5 -6 4 -16 0 -23 -8 -10 -12 -9 -15 5 -15 10 0 16 -3 12 -6 -3
-4 -13 -4 -22 0 -13 5 -13 9 -3 26 15 23 24 25 34 8z m621 -24 c-3 -3 -12 -4
-19 -1 -8 3 -5 6 6 6 11 1 17 -2 13 -5z m782 -20 c4 3 8 -1 8 -9 0 -8 -3 -15
-6 -16 -3 0 -14 -2 -23 -4 -11 -2 -18 3 -18 12 0 12 3 13 14 4 12 -10 14 -8
10 11 -2 13 -2 17 2 10 3 -6 9 -10 13 -8z m-262 -19 c0 -8 -4 -12 -9 -9 -5 3
-6 10 -3 15 9 13 12 11 12 -6z m-784 -98 c-3 -4 -6 -7 -7 -5 -1 2 -8 12 -16
22 -14 18 -14 18 7 6 12 -8 19 -18 16 -23z m1325 -1 c-28 -23 -29 -39 -2 -29
8 3 11 10 7 16 -4 6 -1 7 7 2 10 -6 9 -11 -5 -21 -14 -11 -22 -11 -33 -2 -12
10 -10 16 12 35 15 13 30 23 34 23 4 0 -5 -11 -20 -24z m-1238 -36 c0 -5 -5
-10 -11 -10 -5 0 -7 5 -4 10 3 6 8 10 11 10 2 0 4 -4 4 -10z m117 -12 c-3 -8
-6 -5 -6 6 -1 11 2 17 5 13 3 -3 4 -12 1 -19z m362 8 c0 -5 5 -12 13 -17 9 -6
6 -8 -10 -6 -12 0 -22 5 -22 9 0 12 -35 9 -48 -4 -7 -7 -12 -8 -12 -2 0 13 38
31 63 30 9 -1 17 -5 16 -10z m71 -1 c0 -2 -10 -9 -22 -15 -22 -11 -22 -10 -4
4 21 17 26 19 26 11z m137 -17 c-3 -8 -6 -5 -6 6 -1 11 2 17 5 13 3 -3 4 -12
1 -19z m333 1 c0 -5 -4 -9 -10 -9 -5 0 -10 7 -10 16 0 8 5 12 10 9 6 -3 10
-10 10 -16z m120 -14 c14 -19 14 -19 -2 -6 -10 7 -18 18 -18 24 0 6 1 8 3 6 1
-2 9 -13 17 -24z m35 15 c3 -5 1 -10 -4 -10 -6 0 -11 5 -11 10 0 6 2 10 4 10
3 0 8 -4 11 -10z m-618 -15 c0 -8 -4 -12 -9 -9 -5 3 -6 10 -3 15 9 13 12 11
12 -6z m-977 -85 c0 -5 -2 -10 -4 -10 -3 0 -8 5 -11 10 -3 6 -1 10 4 10 6 0
11 -4 11 -10z m1995 -79 c3 -5 2 -12 -3 -15 -5 -3 -9 1 -9 9 0 17 3 19 12 6z
m-1895 -101 c0 -5 -2 -10 -4 -10 -3 0 -8 5 -11 10 -3 6 -1 10 4 10 6 0 11 -4
11 -10z m1885 -10 c-3 -5 -1 -10 6 -10 7 0 10 -3 6 -6 -9 -9 -28 6 -22 17 4 5
8 9 11 9 3 0 2 -4 -1 -10z m-1834 -58 c-7 -2 -18 1 -23 6 -8 8 -4 9 13 5 13
-4 18 -8 10 -11z m43 -42 c-6 -6 -10 -3 -10 10 0 13 4 16 10 10 7 -7 7 -13 0
-20z m1622 -35 c-6 -18 -26 -11 -26 8 0 7 4 6 10 -3 8 -13 10 -12 10 4 0 11 3
17 6 13 4 -3 4 -13 0 -22z m-1459 -17 c-3 -7 -5 -2 -5 12 0 14 2 19 5 13 2 -7
2 -19 0 -25z m57 20 c-3 -4 -9 -8 -15 -8 -5 0 -9 4 -9 8 0 5 7 9 15 9 8 0 12
-4 9 -9z m1340 -17 c-2 -3 -12 3 -22 13 -16 17 -16 18 5 5 12 -7 20 -15 17
-18z m26 19 c0 -5 -2 -10 -4 -10 -3 0 -8 5 -11 10 -3 6 -1 10 4 10 6 0 11 -4
11 -10z m-1177 -27 c-3 -7 -6 -13 -8 -13 -2 0 -5 6 -8 13 -3 8 1 14 8 14 7 0
11 -6 8 -14z m413 5 c4 -7 3 -8 -4 -4 -7 4 -12 2 -12 -5 0 -7 -3 -10 -6 -6 -6
5 3 27 11 27 2 0 7 -5 11 -12z m519 2 c3 -5 1 -10 -4 -10 -6 0 -11 5 -11 10 0
6 2 10 4 10 3 0 8 -4 11 -10z m-350 -26 c9 -4 15 -1 15 7 0 11 3 11 10 -1 5
-8 10 -10 10 -3 0 13 17 12 44 -3 14 -9 5 -10 -40 -8 -80 5 -84 6 -84 17 0 5
7 6 15 3 8 -3 22 -9 30 -12z"/>
<path d="M1577 2175 c-4 -8 -1 -17 5 -21 7 -4 8 -3 4 4 -10 16 6 15 24 0 8 -7
6 -3 -4 10 -23 26 -22 26 -29 7z"/>
<path d="M1295 2160 c3 -5 8 -10 11 -10 2 0 4 5 4 10 0 6 -5 10 -11 10 -5 0
-7 -4 -4 -10z"/>
<path d="M1485 2160 c-3 -6 1 -7 9 -4 18 7 21 14 7 14 -6 0 -13 -4 -16 -10z"/>
<path d="M1514 2052 c3 -6 2 -13 -3 -17 -6 -3 -8 -12 -4 -21 5 -13 7 -13 22 0
15 14 19 14 39 0 18 -13 21 -13 16 0 -6 17 -42 28 -50 15 -3 -5 -10 -9 -16 -9
-7 0 -6 5 1 14 9 11 9 16 0 22 -7 4 -9 3 -5 -4z"/>
<path d="M1173 1989 c2 -23 3 -23 27 -1 18 17 18 17 -5 18 -17 1 -23 -3 -22
-17z"/>
<path d="M1276 1982 c-3 -5 1 -9 9 -9 8 0 12 4 9 9 -3 4 -7 8 -9 8 -2 0 -6 -4
-9 -8z"/>
<path d="M1770 1946 c0 -2 7 -7 16 -10 8 -3 12 -2 9 4 -6 10 -25 14 -25 6z"/>
<path d="M1972 1933 c-10 -4 -10 -10 3 -29 16 -26 8 -32 -14 -11 -11 9 -12 9
-7 0 4 -7 16 -17 26 -23 16 -9 18 -7 13 12 -3 13 -6 31 -6 41 -1 9 -1 17 -2
16 0 0 -6 -3 -13 -6z"/>
<path d="M1795 1890 c3 -5 8 -10 11 -10 2 0 4 5 4 10 0 6 -5 10 -11 10 -5 0
-7 -4 -4 -10z"/>
<path d="M1885 1580 c-3 -5 -1 -10 4 -10 6 0 11 5 11 10 0 6 -2 10 -4 10 -3 0
-8 -4 -11 -10z"/>
<path d="M1930 1539 c0 -5 5 -7 10 -4 6 3 10 8 10 11 0 2 -4 4 -10 4 -5 0 -10
-5 -10 -11z"/>
<path d="M1878 1463 c7 -3 16 -2 19 1 4 3 -2 6 -13 5 -11 0 -14 -3 -6 -6z"/>
<path d="M1886 1441 c-3 -5 2 -15 12 -22 15 -12 16 -12 5 2 -7 9 -10 19 -6 22
3 4 4 7 0 7 -3 0 -8 -4 -11 -9z"/>
<path d="M626 1421 c-4 -5 -2 -12 4 -16 6 -4 7 -11 4 -17 -4 -6 -2 -8 4 -5 10
7 11 32 0 42 -3 4 -9 2 -12 -4z"/>
<path d="M1953 1395 c0 -8 4 -12 9 -9 5 3 6 10 3 15 -9 13 -12 11 -12 -6z"/>
<path d="M1895 1380 c3 -5 8 -10 11 -10 2 0 4 5 4 10 0 6 -5 10 -11 10 -5 0
-7 -4 -4 -10z"/>
<path d="M1879 1363 c-5 -47 -5 -92 -1 -88 7 6 12 95 6 95 -2 0 -4 -3 -5 -7z"/>
<path d="M1896 1273 c-6 -14 -5 -15 5 -6 7 7 10 15 7 18 -3 3 -9 -2 -12 -12z"/>
<path d="M636 1243 c-6 -14 -5 -15 5 -6 7 7 10 15 7 18 -3 3 -9 -2 -12 -12z"/>
<path d="M650 1220 c0 -5 5 -10 11 -10 5 0 7 5 4 10 -3 6 -8 10 -11 10 -2 0
-4 -4 -4 -10z"/>
<path d="M1950 1213 c8 -3 19 -11 23 -17 6 -7 7 -6 4 4 -2 8 -12 16 -23 17
-13 2 -15 1 -4 -4z"/>
<path d="M640 1160 c-9 -6 -10 -10 -3 -10 6 0 15 5 18 10 8 12 4 12 -15 0z"/>
<path d="M655 1141 c-3 -5 -2 -12 3 -15 5 -3 9 1 9 9 0 17 -3 19 -12 6z"/>
<path d="M796 1115 c-3 -9 -2 -14 3 -10 5 3 11 -1 14 -7 2 -7 7 -11 10 -8 3 3
0 13 -8 23 -11 16 -13 16 -19 2z"/>
<path d="M1845 1120 c-3 -6 1 -7 9 -4 18 7 21 14 7 14 -6 0 -13 -4 -16 -10z"/>
<path d="M1805 1075 c-26 -21 -26 -24 -7 -18 18 4 21 2 16 -13 -5 -15 -4 -16
4 -5 6 8 8 21 4 30 -4 12 0 12 19 -4 l24 -20 -18 21 c-14 17 -15 23 -5 27 7 3
9 6 3 6 -5 0 -23 -11 -40 -24z"/>
<path d="M1950 1056 c7 -7 13 -7 20 0 6 6 3 10 -10 10 -13 0 -16 -4 -10 -10z"/>
<path d="M1961 999 c12 -23 12 -32 -1 -24 -6 3 -7 -1 -4 -10 9 -21 17 -11 19
23 1 18 -3 29 -11 29 -9 0 -10 -5 -3 -18z"/>
<path d="M626 1002 c-2 -4 4 -8 14 -8 10 0 16 4 14 8 -3 4 -9 8 -14 8 -5 0
-11 -4 -14 -8z"/>
<path d="M873 985 c0 -7 6 -11 14 -8 7 3 13 6 13 8 0 2 -6 5 -13 8 -8 3 -14
-1 -14 -8z"/>
<path d="M938 958 c2 -10 6 -18 7 -18 1 0 5 8 7 18 3 11 0 19 -7 19 -7 0 -10
-8 -7 -19z"/>
<path d="M1600 945 c-7 -9 -8 -15 -2 -15 5 0 12 7 16 15 3 8 4 15 2 15 -2 0
-9 -7 -16 -15z"/>
<path d="M1524 942 c3 -6 -2 -13 -11 -15 -16 -4 -16 -5 -1 -6 21 -1 32 15 17
25 -7 4 -9 3 -5 -4z"/>
<path d="M1550 940 c0 -6 4 -9 9 -6 5 4 12 1 14 -4 3 -6 4 -5 3 2 -3 15 -26
23 -26 8z"/>
<path d="M1630 940 c0 -5 5 -10 10 -10 6 0 10 5 10 10 0 6 -4 10 -10 10 -5 0
-10 -4 -10 -10z"/>
<path d="M1125 930 c-4 -6 -11 -8 -16 -5 -5 4 -9 2 -9 -3 0 -5 11 -9 25 -9 25
0 33 11 16 22 -5 3 -12 1 -16 -5z"/>
<path d="M1348 923 c6 -2 18 -2 25 0 6 3 1 5 -13 5 -14 0 -19 -2 -12 -5z"/>
<path d="M1946 922 c-3 -5 1 -9 9 -9 8 0 12 4 9 9 -3 4 -7 8 -9 8 -2 0 -6 -4
-9 -8z"/>
<path d="M1047 899 c7 -7 15 -10 18 -7 3 3 -2 9 -12 12 -14 6 -15 5 -6 -5z"/>
<path d="M1157 903 c-3 -5 -1 -17 4 -28 6 -17 7 -16 6 8 -1 28 -3 32 -10 20z"/>
<path d="M1213 885 c0 -8 4 -12 9 -9 5 3 6 10 3 15 -9 13 -12 11 -12 -6z"/>
<path d="M692 874 c-7 -8 -8 -14 -3 -14 10 0 25 19 20 25 -2 1 -10 -3 -17 -11z"/>
<path d="M987 879 c7 -7 15 -10 18 -7 3 3 -2 9 -12 12 -14 6 -15 5 -6 -5z"/>
<path d="M1255 860 c3 -5 8 -10 11 -10 2 0 4 5 4 10 0 6 -5 10 -11 10 -5 0 -7
-4 -4 -10z"/>
<path d="M1450 860 c0 -5 5 -10 11 -10 5 0 7 5 4 10 -3 6 -8 10 -11 10 -2 0
-4 -4 -4 -10z"/>
<path d="M1650 860 c0 -5 5 -10 11 -10 5 0 7 5 4 10 -3 6 -8 10 -11 10 -2 0
-4 -4 -4 -10z"/>
<path d="M1321 853 c-1 -17 16 -25 25 -12 4 7 3 9 -4 5 -5 -3 -13 0 -15 6 -4
9 -6 10 -6 1z"/>
<path d="M1175 1610 c3 -5 8 -10 11 -10 2 0 4 5 4 10 0 6 -5 10 -11 10 -5 0
-7 -4 -4 -10z"/>
<path d="M1465 1570 c-3 -5 -12 -7 -20 -3 -8 3 -15 3 -15 0 0 -13 30 -14 40
-1 7 8 10 14 7 14 -3 0 -8 -4 -12 -10z"/>
<path d="M1216 1393 c-6 -14 -5 -15 5 -6 7 7 10 15 7 18 -3 3 -9 -2 -12 -12z"/>
<path d="M1308 1373 c7 -3 16 -2 19 1 4 3 -2 6 -13 5 -11 0 -14 -3 -6 -6z"/>
<path d="M1244 1359 c-2 -4 0 -10 5 -13 5 -4 13 -1 16 5 4 5 14 8 22 5 8 -3
11 -2 8 3 -6 11 -44 10 -51 0z"/>
<path d="M1355 1360 c-3 -5 -1 -10 4 -10 6 0 11 5 11 10 0 6 -2 10 -4 10 -3 0
-8 -4 -11 -10z"/>
<path d="M1163 1495 c0 -8 4 -12 9 -9 5 3 6 10 3 15 -9 13 -12 11 -12 -6z"/>
<path d="M786 1193 c-6 -14 -5 -15 5 -6 7 7 10 15 7 18 -3 3 -9 -2 -12 -12z"/>
<path d="M1151 2564 c0 -11 3 -14 6 -6 3 7 2 16 -1 19 -3 4 -6 -2 -5 -13z"/>
<path d="M1335 2569 c-4 -6 -5 -12 -2 -15 2 -3 7 2 10 11 7 17 1 20 -8 4z"/>
<path d="M1767 2556 c-4 -10 -3 -15 3 -11 6 3 10 1 10 -6 0 -7 3 -10 6 -6 3 3
2 13 -4 22 -8 16 -9 16 -15 1z"/>
<path d="M930 2540 c-9 -6 -10 -10 -3 -10 6 0 15 5 18 10 8 12 4 12 -15 0z"/>
<path d="M873 2505 c0 -8 4 -15 9 -15 4 0 8 4 8 9 0 6 -4 12 -8 15 -5 3 -9 -1
-9 -9z"/>
<path d="M2120 2480 c8 -5 20 -10 25 -10 6 0 3 5 -5 10 -8 5 -19 10 -25 10 -5
0 -3 -5 5 -10z"/>
<path d="M826 2462 c-3 -5 1 -9 9 -9 8 0 15 4 15 9 0 4 -4 8 -9 8 -6 0 -12 -4
-15 -8z"/>
<path d="M2214 2415 c-4 -8 -11 -12 -18 -8 -6 3 -2 -3 8 -15 11 -12 22 -19 25
-16 3 4 1 9 -6 11 -7 2 -9 11 -6 19 3 7 10 11 16 7 6 -3 7 -1 3 5 -10 16 -15
15 -22 -3z"/>
<path d="M787 2309 c7 -7 15 -10 18 -7 3 3 -2 9 -12 12 -14 6 -15 5 -6 -5z"/>
<path d="M335 2021 c-3 -5 -2 -12 3 -15 5 -3 9 1 9 9 0 17 -3 19 -12 6z"/>
<path d="M2355 1922 c-2 -3 -2 -8 1 -13 5 -9 34 -1 34 10 0 8 -27 10 -35 3z"/>
<path d="M2363 1874 c0 -7 5 -10 10 -7 6 4 8 -1 4 -11 -4 -9 -3 -15 2 -11 13
8 9 42 -4 42 -7 0 -12 -6 -12 -13z"/>
<path d="M229 1863 c-13 -16 -12 -17 4 -4 9 7 17 15 17 17 0 8 -8 3 -21 -13z"/>
<path d="M246 1801 c-17 -19 -17 -19 0 -17 9 2 18 10 20 19 3 21 1 21 -20 -2z"/>
<path d="M2386 1778 c3 -5 10 -6 15 -3 13 9 11 12 -6 12 -8 0 -12 -4 -9 -9z"/>
<path d="M229 1723 c-7 -10 -9 -15 -5 -11 5 4 15 3 22 -3 9 -7 12 -6 10 5 -3
25 -12 28 -27 9z"/>
<path d="M230 1519 c0 -5 5 -7 10 -4 6 3 10 8 10 11 0 2 -4 4 -10 4 -5 0 -10
-5 -10 -11z"/>
<path d="M2366 1465 c4 -8 11 -15 16 -15 6 0 5 6 -2 15 -7 8 -14 15 -16 15 -2
0 -1 -7 2 -15z"/>
<path d="M240 1430 c-13 -9 -13 -10 0 -10 13 0 13 -1 0 -10 -8 -5 -11 -12 -7
-16 9 -10 17 -1 22 25 4 24 5 24 -15 11z"/>
<path d="M2358 1373 c7 -3 16 -2 19 1 4 3 -2 6 -13 5 -11 0 -14 -3 -6 -6z"/>
<path d="M2356 1221 c-3 -4 4 -17 17 -27 l22 -19 -18 21 c-14 17 -15 23 -5 27
9 4 9 6 1 6 -6 1 -14 -3 -17 -8z"/>
<path d="M241 1194 c0 -11 3 -14 6 -6 3 7 2 16 -1 19 -3 4 -6 -2 -5 -13z"/>
<path d="M2355 1160 c-3 -5 -1 -10 4 -10 6 0 11 5 11 10 0 6 -2 10 -4 10 -3 0
-8 -4 -11 -10z"/>
<path d="M260 1120 c0 -5 -8 -7 -17 -4 -17 5 -17 5 -1 -6 9 -6 15 -17 12 -25
-4 -8 -2 -15 3 -15 4 0 9 14 9 30 1 17 0 30 -2 30 -2 0 -4 -4 -4 -10z"/>
<path d="M2359 983 c0 -5 -2 -18 -3 -30 -1 -12 1 -20 4 -18 8 5 11 55 4 55 -2
0 -4 -3 -5 -7z"/>
<path d="M265 931 c-3 -6 5 -15 17 -21 21 -10 22 -10 5 3 -14 11 -15 16 -5 20
9 4 9 6 1 6 -6 1 -14 -3 -18 -8z"/>
<path d="M2365 900 c3 -5 11 -10 16 -10 6 0 7 5 4 10 -3 6 -11 10 -16 10 -6 0
-7 -4 -4 -10z"/>
<path d="M2361 823 c11 -3 15 -12 13 -26 -4 -21 -4 -21 5 -2 11 25 5 35 -17
34 -15 -1 -15 -2 -1 -6z"/>
<path d="M290 813 c5 -2 8 -9 4 -14 -3 -5 0 -9 6 -9 15 0 7 23 -8 26 -7 1 -8
0 -2 -3z"/>
<path d="M293 649 c-2 -23 3 -25 10 -4 4 8 3 16 -1 19 -4 3 -9 -4 -9 -15z"/>
<path d="M359 568 c-6 -21 -5 -38 2 -38 5 0 9 5 9 11 0 5 6 7 13 3 8 -5 8 -2
-2 9 -12 16 -20 21 -22 15z"/>
<path d="M416 475 c-3 -8 -1 -15 4 -15 6 0 10 7 10 15 0 8 -2 15 -4 15 -2 0
-6 -7 -10 -15z"/>
<path d="M2326 462 c-3 -5 1 -9 9 -9 8 0 12 4 9 9 -3 4 -7 8 -9 8 -2 0 -6 -4
-9 -8z"/>
<path d="M420 446 c0 -2 8 -10 18 -17 15 -13 16 -12 3 4 -13 16 -21 21 -21 13z"/>
<path d="M467 435 c3 -8 9 -12 14 -9 12 7 11 11 -5 17 -10 4 -13 1 -9 -8z"/>
<path d="M2239 423 c-13 -15 -17 -22 -9 -16 8 6 23 9 32 8 23 -4 31 10 15 24
-11 8 -19 4 -38 -16z m35 9 c3 -5 -1 -9 -9 -9 -8 0 -12 4 -9 9 3 4 7 8 9 8 2
0 6 -4 9 -8z"/>
<path d="M520 400 c-9 -6 -10 -10 -3 -10 6 0 15 5 18 10 8 12 4 12 -15 0z"/>
<path d="M540 385 c-7 -9 -8 -15 -2 -15 5 0 12 7 16 15 3 8 4 15 2 15 -2 0 -9
-7 -16 -15z"/>
<path d="M577 384 c6 -17 36 -19 31 -2 -2 6 -11 12 -20 14 -11 1 -15 -3 -11
-12z"/>
<path d="M763 369 c10 -6 14 -15 10 -22 -5 -9 -3 -9 8 0 8 7 27 10 42 7 15 -2
27 -1 27 4 0 4 -10 8 -22 9 -13 1 -36 4 -53 7 -24 5 -27 4 -12 -5z"/>
<path d="M1038 359 c-10 -5 -18 -15 -18 -22 0 -8 4 -7 9 2 8 13 12 13 28 0 16
-12 17 -12 6 2 -7 9 -10 19 -6 22 9 10 1 8 -19 -4z"/>
<path d="M1070 358 c0 -4 7 -8 15 -8 8 0 15 4 15 8 0 5 -7 9 -15 9 -8 0 -15
-4 -15 -9z"/>
<path d="M1216 361 c-4 -5 -2 -12 3 -15 5 -4 12 -2 15 3 4 5 2 12 -3 15 -5 4
-12 2 -15 -3z"/>
<path d="M1148 353 c6 -3 10 -9 6 -14 -8 -14 2 -11 14 4 8 10 6 13 -11 14 -12
0 -16 -1 -9 -4z"/>
<path d="M1360 350 c-9 -6 -10 -10 -3 -10 6 0 15 5 18 10 8 12 4 12 -15 0z"/>
<path d="M2000 340 c-9 -6 -10 -10 -3 -10 6 0 15 5 18 10 8 12 4 12 -15 0z"/>
<path d="M930 336 c0 -2 8 -10 18 -17 15 -13 16 -12 3 4 -13 16 -21 21 -21 13z"/>
<path d="M1337 329 c7 -7 15 -10 18 -7 3 3 -2 9 -12 12 -14 6 -15 5 -6 -5z"/>
<path d="M1375 331 c-3 -5 -2 -12 3 -15 5 -3 9 1 9 9 0 17 -3 19 -12 6z"/>
<path d="M1616 314 c-5 -14 -4 -15 9 -4 17 14 19 20 6 20 -5 0 -12 -7 -15 -16z"/>
</g>
</svg>
